<svg xmlns="http://www.w3.org/2000/svg" xmlns:xlink="http://www.w3.org/1999/xlink" width="121.709" height="27.88" viewBox="0 0 121.709 27.88">
  <defs>
    <linearGradient id="linear-gradient" x1="0.5" x2="0.5" y2="1" gradientUnits="objectBoundingBox">
      <stop offset="0" stop-color="#0a854b"/>
      <stop offset="1" stop-color="#054326"/>
    </linearGradient>
  </defs>
  <g id="ACKUITY_Logo_120_Colored" transform="translate(0.738 0.5)">
    <path id="Union_13" data-name="Union 13" d="M9.478,4.6,5.908,19.03,0,19.02,7.6.04l1.823,0,2.721,0,7.6,18.981-4.524.01ZM61.759,16.871a6.933,6.933,0,0,1-2.049-5.236V.48h4.3v10.8a3.918,3.918,0,0,0,.784,2.555,3.522,3.522,0,0,0,5.185,0,4.008,4.008,0,0,0,.759-2.555V.48h4.326V11.635a6.9,6.9,0,0,1-2.1,5.236,7.862,7.862,0,0,1-5.615,2A7.771,7.771,0,0,1,61.759,16.871Zm-38.043-.632A9.066,9.066,0,0,1,20.959,9.41a8.962,8.962,0,0,1,2.808-6.855A9.712,9.712,0,0,1,30.672,0q4.427,0,6.7,2.631L34.441,5.565a4.167,4.167,0,0,0-3.617-1.644,4.872,4.872,0,0,0-3.718,1.568A5.515,5.515,0,0,0,25.664,9.41a5.642,5.642,0,0,0,1.416,3.971A4.788,4.788,0,0,0,30.748,14.9a4.354,4.354,0,0,0,3.794-1.821l3.01,2.833A8.712,8.712,0,0,1,30.6,18.869,9.467,9.467,0,0,1,23.716,16.239Zm85.115,2.15V10.8L102.1.48h5.236l3.82,6.652L114.978.48h5.059l-6.88,10.32v7.588Zm-16.365,0V4.173H87.407V.48H101.85V4.173H96.792V18.389Zm-12.647,0V.48h4.35V18.389Zm-28.229,0-6.652-8.246h-.05v8.246H40.638V.48h4.249V7.765h.076L51.363.48h5.413L49.061,8.727l8.17,9.662Z" fill="#0a854b" stroke="rgba(0,0,0,0)" stroke-miterlimit="10" stroke-width="1"/>
    <path id="Path_3155" data-name="Path 3155" d="M41.185,115.852l1.959-5.255,14.488,13.356-4.529.023Z" transform="translate(-37.889 -104.936)" fill-rule="evenodd" fill="url(#linear-gradient)"/>
    <path id="Path_3190" data-name="Path 3190" d="M6.575-41.051l.445-.464a2.072,2.072,0,0,0-.712-.432,2.762,2.762,0,0,0-.977-.161,2.631,2.631,0,0,0-.967.174,2.318,2.318,0,0,0-.77.487,2.206,2.206,0,0,0-.509.754,2.519,2.519,0,0,0-.184.977,2.541,2.541,0,0,0,.181.97,2.26,2.26,0,0,0,.5.761,2.265,2.265,0,0,0,.77.5,2.649,2.649,0,0,0,.983.177,3.937,3.937,0,0,0,.928-.1,3.308,3.308,0,0,0,.787-.3v-2.211H5.408v.542H6.42v1.27a1.729,1.729,0,0,1-.471.168,2.833,2.833,0,0,1-.593.058,1.837,1.837,0,0,1-.735-.142,1.588,1.588,0,0,1-.554-.39A1.749,1.749,0,0,1,3.719-39a2.069,2.069,0,0,1-.122-.716,2.023,2.023,0,0,1,.122-.706,1.793,1.793,0,0,1,.348-.583,1.619,1.619,0,0,1,.548-.4,1.74,1.74,0,0,1,.722-.145,1.807,1.807,0,0,1,.712.135A1.485,1.485,0,0,1,6.575-41.051Zm3.585,3.056v-1.522h2.153v-.548H10.159v-1.367h2.289v-.561H9.521v4.565h3.024v-.567Zm7.827-.348L15.6-41.992h-.832v4.565h.638v-3.726h.013l2.411,3.726h.806v-4.565H18v3.649Zm3.32.915.458-1.122H23.93l.464,1.122h.722l-1.96-4.565h-.58L20.6-37.427Zm.683-1.683.857-2.14.851,2.14Zm5.725,1.683v-4.565h-.638v4.565Zm7.737-3.72.451-.438a1.489,1.489,0,0,0-.561-.38,1.963,1.963,0,0,0-.748-.142,2.2,2.2,0,0,0-.564.074,1.5,1.5,0,0,0-.5.235,1.263,1.263,0,0,0-.361.406,1.173,1.173,0,0,0-.139.587,1.207,1.207,0,0,0,.1.529,1.1,1.1,0,0,0,.271.358,1.5,1.5,0,0,0,.38.239,3.593,3.593,0,0,0,.432.158q.219.071.416.139a1.557,1.557,0,0,1,.345.164.768.768,0,0,1,.235.235.637.637,0,0,1,.087.345.691.691,0,0,1-.084.351.778.778,0,0,1-.216.242.906.906,0,0,1-.293.142,1.191,1.191,0,0,1-.322.045,1.2,1.2,0,0,1-.587-.148,1.215,1.215,0,0,1-.432-.387l-.5.419a1.657,1.657,0,0,0,.667.5,2.153,2.153,0,0,0,.835.168,2.093,2.093,0,0,0,.59-.084,1.5,1.5,0,0,0,.506-.255,1.261,1.261,0,0,0,.351-.432,1.347,1.347,0,0,0,.132-.616,1.16,1.16,0,0,0-.123-.564,1.175,1.175,0,0,0-.316-.371,1.685,1.685,0,0,0-.432-.239q-.239-.09-.471-.161-.193-.064-.364-.126a1.274,1.274,0,0,1-.3-.148.673.673,0,0,1-.2-.213.607.607,0,0,1-.074-.313.65.65,0,0,1,.081-.332.747.747,0,0,1,.21-.232.86.86,0,0,1,.287-.135,1.215,1.215,0,0,1,.313-.042,1.126,1.126,0,0,1,.522.119A1.018,1.018,0,0,1,35.451-41.147Zm3.411,3.153v-1.522h2.153v-.548H38.862v-1.367h2.289v-.561H38.224v4.565h3.024v-.567Zm8.523-.142-.509-.348a1.353,1.353,0,0,1-.522.451,1.576,1.576,0,0,1-.7.155,1.735,1.735,0,0,1-.712-.142,1.577,1.577,0,0,1-.542-.39,1.735,1.735,0,0,1-.342-.583,2.139,2.139,0,0,1-.119-.722,2.023,2.023,0,0,1,.122-.706,1.793,1.793,0,0,1,.348-.583,1.627,1.627,0,0,1,.545-.4,1.718,1.718,0,0,1,.719-.145,1.47,1.47,0,0,1,.661.152,1.256,1.256,0,0,1,.474.384l.5-.387A1.443,1.443,0,0,0,47-41.705a1.894,1.894,0,0,0-.4-.222,2.342,2.342,0,0,0-.458-.135,2.528,2.528,0,0,0-.471-.045,2.631,2.631,0,0,0-.967.174,2.318,2.318,0,0,0-.77.487,2.207,2.207,0,0,0-.509.754,2.519,2.519,0,0,0-.184.977,2.541,2.541,0,0,0,.181.97,2.285,2.285,0,0,0,.5.761,2.244,2.244,0,0,0,.761.5,2.564,2.564,0,0,0,.964.177,2.19,2.19,0,0,0,1.038-.229A2.048,2.048,0,0,0,47.385-38.137Zm3.765.825a1.9,1.9,0,0,0,.787-.152,1.593,1.593,0,0,0,.554-.4,1.646,1.646,0,0,0,.326-.577,2.156,2.156,0,0,0,.106-.674v-2.875h-.638v2.837a1.869,1.869,0,0,1-.058.461,1.173,1.173,0,0,1-.19.409.956.956,0,0,1-.351.29,1.187,1.187,0,0,1-.535.11,1.183,1.183,0,0,1-.538-.11.963.963,0,0,1-.348-.29,1.173,1.173,0,0,1-.19-.409,1.869,1.869,0,0,1-.058-.461v-2.837h-.638v2.875a2.155,2.155,0,0,0,.106.674,1.646,1.646,0,0,0,.326.577,1.593,1.593,0,0,0,.554.4A1.9,1.9,0,0,0,51.15-37.311Zm4.861-.116v-2.031h.683l1.16,2.031h.774l-1.277-2.1a1.44,1.44,0,0,0,.8-.393,1.1,1.1,0,0,0,.309-.812,1.24,1.24,0,0,0-.129-.59,1.06,1.06,0,0,0-.351-.39,1.547,1.547,0,0,0-.519-.216,2.8,2.8,0,0,0-.625-.068H55.373v4.565Zm0-2.566V-41.45h.78a2.108,2.108,0,0,1,.393.035.975.975,0,0,1,.326.119.648.648,0,0,1,.222.222.656.656,0,0,1,.084.345.656.656,0,0,1-.084.345.658.658,0,0,1-.229.226,1.055,1.055,0,0,1-.338.126,2.137,2.137,0,0,1-.419.039Zm5.332,2.566v-4.565H60.7v4.565Zm4.081,0v-4h1.463v-.561H63.322v.561h1.463v4Zm5.145,0V-39.4l1.708-2.592h-.741l-1.27,2.063L69-41.992h-.787L69.924-39.4v1.973Zm9.89-3.623.445-.464a2.072,2.072,0,0,0-.712-.432,2.763,2.763,0,0,0-.977-.161,2.631,2.631,0,0,0-.967.174,2.318,2.318,0,0,0-.77.487,2.207,2.207,0,0,0-.509.754,2.519,2.519,0,0,0-.184.977,2.541,2.541,0,0,0,.181.97,2.26,2.26,0,0,0,.5.761,2.265,2.265,0,0,0,.77.5,2.649,2.649,0,0,0,.983.177,3.937,3.937,0,0,0,.928-.1,3.308,3.308,0,0,0,.787-.3v-2.211H79.292v.542H80.3v1.27a1.729,1.729,0,0,1-.471.168,2.833,2.833,0,0,1-.593.058,1.837,1.837,0,0,1-.735-.142,1.588,1.588,0,0,1-.554-.39A1.75,1.75,0,0,1,77.6-39a2.069,2.069,0,0,1-.122-.716,2.023,2.023,0,0,1,.122-.706,1.794,1.794,0,0,1,.348-.583,1.619,1.619,0,0,1,.548-.4,1.74,1.74,0,0,1,.722-.145,1.807,1.807,0,0,1,.712.135A1.485,1.485,0,0,1,80.458-41.051Zm3.133,3.623.458-1.122h2.166l.464,1.122H87.4l-1.96-4.565h-.58l-1.979,4.565Zm.683-1.683.857-2.14.851,2.14Zm6.3,1.683v-4h1.464v-.561H88.472v.561h1.464v4Zm4.081-.567v-1.522h2.153v-.548H94.655v-1.367h2.289v-.561H94.017v4.565H97.04v-.567Zm5.815-.361-1.006-3.636h-.69l1.341,4.565h.664l1.109-3.668h.013l1.109,3.668h.664l1.341-4.565h-.677l-1.006,3.636h-.013l-1.064-3.636h-.7l-1.07,3.636Zm6.647.928.458-1.122h2.166l.464,1.122h.722l-1.96-4.565h-.58l-1.979,4.565Zm.683-1.683.857-2.14.851,2.14Zm6.479,1.683V-39.4l1.708-2.592h-.741l-1.27,2.063-1.264-2.063h-.787l1.708,2.592v1.973Z" transform="translate(-2.577 64.691)" fill="#2f3a45"/>
  </g>
</svg>
