<svg xmlns="http://www.w3.org/2000/svg" xmlns:xlink="http://www.w3.org/1999/xlink" width="231.722" height="52.973" viewBox="0 0 231.722 52.973">
  <defs>
    <linearGradient id="linear-gradient" x1="0.5" x2="0.5" y2="1" gradientUnits="objectBoundingBox">
      <stop offset="0" stop-color="#0a854b"/>
      <stop offset="1" stop-color="#054326"/>
    </linearGradient>
  </defs>
  <g id="ACKUITY_Logo_230_White" transform="translate(2773.739 499.602)">
    <path id="Union_13" data-name="Union 13" d="M18.164,8.812l-6.841,27.66L0,36.453,14.567.076l3.495.006L23.278.076,37.845,36.453l-8.67.019Zm100.2,23.522A13.287,13.287,0,0,1,114.434,22.3V.921h8.241v20.7a7.51,7.51,0,0,0,1.5,4.9,6.749,6.749,0,0,0,9.938,0,7.682,7.682,0,0,0,1.454-4.9V.921h8.29V22.3a13.218,13.218,0,0,1-4.024,10.034q-4.072,3.83-10.761,3.829T118.361,32.333ZM45.452,31.122a17.374,17.374,0,0,1-5.284-13.089A17.176,17.176,0,0,1,45.549,4.9,18.613,18.613,0,0,1,58.784,0q8.483,0,12.846,5.042l-5.623,5.623q-2.277-3.151-6.932-3.151a9.337,9.337,0,0,0-7.126,3.005,10.57,10.57,0,0,0-2.763,7.514,10.812,10.812,0,0,0,2.714,7.61,9.176,9.176,0,0,0,7.029,2.909,8.344,8.344,0,0,0,7.272-3.49l5.768,5.43q-4.9,5.671-13.331,5.671A18.143,18.143,0,0,1,45.452,31.122Zm163.123,4.12V20.7L195.681.921h10.034l7.321,12.749L220.355.921h9.695L216.865,20.7V35.242Zm-31.364,0V8h-9.695V.921H195.2V8H185.5V35.242Zm-24.238,0V.921h8.338V35.242Zm-54.1,0-12.749-15.8h-.1v15.8H77.883V.921h8.144V14.882h.145L98.437.921h10.374l-14.785,15.8,15.657,18.518Z" transform="translate(-2773 -499.102)" fill="#fff" stroke="rgba(0,0,0,0)" stroke-miterlimit="10" stroke-width="1"/>
    <path id="Path_3155" data-name="Path 3155" d="M41.185,120.668,44.94,110.6l27.766,25.6-8.68.044Z" transform="translate(-2807.869 -598.85)" fill-rule="evenodd" fill="url(#linear-gradient)"/>
    <path id="Path_3190" data-name="Path 3190" d="M9.943-40.082l.853-.89A3.971,3.971,0,0,0,9.43-41.8a5.294,5.294,0,0,0-1.872-.309,5.042,5.042,0,0,0-1.853.334,4.442,4.442,0,0,0-1.477.933A4.229,4.229,0,0,0,3.252-39.4,4.827,4.827,0,0,0,2.9-37.524a4.869,4.869,0,0,0,.346,1.86,4.331,4.331,0,0,0,.964,1.458,4.341,4.341,0,0,0,1.477.951,5.078,5.078,0,0,0,1.884.34,7.546,7.546,0,0,0,1.779-.2,6.34,6.34,0,0,0,1.507-.568v-4.238H7.706v1.038h1.94v2.434a3.314,3.314,0,0,1-.9.321,5.429,5.429,0,0,1-1.137.111A3.521,3.521,0,0,1,6.2-34.287a3.043,3.043,0,0,1-1.063-.748,3.353,3.353,0,0,1-.667-1.118,3.965,3.965,0,0,1-.235-1.371,3.877,3.877,0,0,1,.235-1.353A3.437,3.437,0,0,1,5.136-40a3.1,3.1,0,0,1,1.05-.76,3.336,3.336,0,0,1,1.384-.278,3.463,3.463,0,0,1,1.365.259A2.847,2.847,0,0,1,9.943-40.082Zm6.87,5.857v-2.916H20.94v-1.05H16.813v-2.619H21.2v-1.075h-5.61v8.748h5.795v-1.087Zm15-.667-4.572-6.993H25.647v8.748H26.87v-7.142H26.9l4.621,7.142h1.544v-8.748H31.837v6.993Zm6.363,1.755.877-2.15H43.2l.89,2.15h1.384l-3.756-8.748H40.61l-3.793,8.748Zm1.31-3.225,1.643-4.1,1.631,4.1Zm10.972,3.225v-8.748H49.234v8.748Zm14.827-7.129.865-.84a2.853,2.853,0,0,0-1.075-.729,3.762,3.762,0,0,0-1.433-.272,4.214,4.214,0,0,0-1.081.142,2.88,2.88,0,0,0-.964.451,2.42,2.42,0,0,0-.692.778,2.248,2.248,0,0,0-.266,1.124,2.314,2.314,0,0,0,.2,1.013,2.113,2.113,0,0,0,.519.686,2.87,2.87,0,0,0,.729.457,6.886,6.886,0,0,0,.828.3q.42.136.8.266a2.983,2.983,0,0,1,.661.315,1.472,1.472,0,0,1,.451.451,1.221,1.221,0,0,1,.167.661,1.325,1.325,0,0,1-.161.673,1.491,1.491,0,0,1-.414.463,1.737,1.737,0,0,1-.562.272,2.282,2.282,0,0,1-.618.086,2.3,2.3,0,0,1-1.124-.284,2.328,2.328,0,0,1-.828-.741l-.951.8a3.176,3.176,0,0,0,1.279.951,4.127,4.127,0,0,0,1.6.321,4.011,4.011,0,0,0,1.131-.161,2.868,2.868,0,0,0,.97-.488,2.416,2.416,0,0,0,.673-.828,2.582,2.582,0,0,0,.253-1.18A2.224,2.224,0,0,0,66-36.653a2.251,2.251,0,0,0-.605-.71,3.23,3.23,0,0,0-.828-.457q-.457-.173-.9-.309-.371-.124-.7-.241a2.442,2.442,0,0,1-.568-.284,1.289,1.289,0,0,1-.383-.408,1.163,1.163,0,0,1-.142-.6,1.245,1.245,0,0,1,.154-.636,1.432,1.432,0,0,1,.4-.445A1.648,1.648,0,0,1,62.98-41a2.329,2.329,0,0,1,.6-.08,2.158,2.158,0,0,1,1,.229A1.95,1.95,0,0,1,65.285-40.267Zm6.536,6.042v-2.916h4.127v-1.05H71.821v-2.619h4.386v-1.075H70.6v8.748h5.795v-1.087ZM88.155-34.5l-.976-.667a2.593,2.593,0,0,1-1,.865,3.02,3.02,0,0,1-1.347.3,3.326,3.326,0,0,1-1.365-.272,3.022,3.022,0,0,1-1.038-.748,3.325,3.325,0,0,1-.655-1.118,4.1,4.1,0,0,1-.229-1.384,3.877,3.877,0,0,1,.235-1.353A3.437,3.437,0,0,1,82.447-40a3.119,3.119,0,0,1,1.044-.76,3.293,3.293,0,0,1,1.378-.278,2.817,2.817,0,0,1,1.266.29,2.408,2.408,0,0,1,.908.735l.964-.741a2.765,2.765,0,0,0-.593-.587,3.63,3.63,0,0,0-.766-.426,4.489,4.489,0,0,0-.877-.259,4.845,4.845,0,0,0-.9-.086,5.042,5.042,0,0,0-1.853.334,4.442,4.442,0,0,0-1.477.933,4.229,4.229,0,0,0-.976,1.446,4.827,4.827,0,0,0-.352,1.872,4.869,4.869,0,0,0,.346,1.86,4.379,4.379,0,0,0,.958,1.458,4.3,4.3,0,0,0,1.458.951,4.913,4.913,0,0,0,1.847.34,4.2,4.2,0,0,0,1.989-.439A3.926,3.926,0,0,0,88.155-34.5Zm7.216,1.582a3.632,3.632,0,0,0,1.507-.29,3.054,3.054,0,0,0,1.063-.772,3.155,3.155,0,0,0,.624-1.106,4.131,4.131,0,0,0,.2-1.291v-5.511H97.546v5.437a3.582,3.582,0,0,1-.111.883,2.249,2.249,0,0,1-.364.785,1.832,1.832,0,0,1-.673.556,2.276,2.276,0,0,1-1.026.21,2.267,2.267,0,0,1-1.032-.21,1.845,1.845,0,0,1-.667-.556,2.249,2.249,0,0,1-.364-.785,3.581,3.581,0,0,1-.111-.883v-5.437H91.973v5.511a4.131,4.131,0,0,0,.2,1.291,3.155,3.155,0,0,0,.624,1.106,3.054,3.054,0,0,0,1.063.772A3.632,3.632,0,0,0,95.371-32.915Zm9.316-.222V-37.03H106l2.224,3.892H109.7l-2.446-4.016a2.76,2.76,0,0,0,1.532-.754,2.105,2.105,0,0,0,.593-1.557,2.376,2.376,0,0,0-.247-1.131,2.032,2.032,0,0,0-.673-.748,2.965,2.965,0,0,0-.995-.414,5.372,5.372,0,0,0-1.2-.13h-2.8v8.748Zm0-4.918v-2.792h1.5a4.039,4.039,0,0,1,.754.068,1.869,1.869,0,0,1,.624.229,1.242,1.242,0,0,1,.426.426,1.258,1.258,0,0,1,.161.661,1.258,1.258,0,0,1-.161.661,1.26,1.26,0,0,1-.439.432,2.022,2.022,0,0,1-.649.241,4.1,4.1,0,0,1-.8.074Zm10.218,4.918v-8.748h-1.223v8.748Zm7.821,0v-7.673h2.8v-1.075H118.7v1.075h2.8v7.673Zm9.86,0v-3.781l3.274-4.967H134.44l-2.434,3.954-2.422-3.954h-1.507l3.274,4.967v3.781Zm18.954-6.944.853-.89a3.971,3.971,0,0,0-1.365-.828,5.294,5.294,0,0,0-1.872-.309,5.042,5.042,0,0,0-1.853.334,4.442,4.442,0,0,0-1.477.933,4.229,4.229,0,0,0-.976,1.446,4.828,4.828,0,0,0-.352,1.872,4.87,4.87,0,0,0,.346,1.86,4.332,4.332,0,0,0,.964,1.458,4.341,4.341,0,0,0,1.477.951,5.078,5.078,0,0,0,1.884.34,7.546,7.546,0,0,0,1.779-.2,6.34,6.34,0,0,0,1.507-.568v-4.238H149.3v1.038h1.94v2.434a3.313,3.313,0,0,1-.9.321,5.429,5.429,0,0,1-1.137.111,3.521,3.521,0,0,1-1.409-.272,3.043,3.043,0,0,1-1.063-.748,3.353,3.353,0,0,1-.667-1.118,3.965,3.965,0,0,1-.235-1.371,3.877,3.877,0,0,1,.235-1.353A3.437,3.437,0,0,1,146.734-40a3.1,3.1,0,0,1,1.05-.76,3.336,3.336,0,0,1,1.384-.278,3.463,3.463,0,0,1,1.365.259A2.846,2.846,0,0,1,151.541-40.082Zm6,6.944.877-2.15h4.152l.89,2.15h1.384l-3.756-8.748H159.98l-3.793,8.748Zm1.31-3.225,1.643-4.1,1.631,4.1Zm12.072,3.225v-7.673h2.8v-1.075H166.9v1.075h2.8v7.673Zm7.821-1.087v-2.916h4.127v-1.05h-4.127v-2.619h4.386v-1.075h-5.61v8.748h5.795v-1.087Zm11.145-.692-1.928-6.969h-1.322l2.57,8.748h1.273l2.125-7.03h.025l2.125,7.03h1.273l2.57-8.748h-1.3l-1.928,6.969h-.025l-2.039-6.969h-1.347l-2.051,6.969Zm12.739,1.779.877-2.15h4.152l.89,2.15h1.384l-3.756-8.748h-1.112l-3.793,8.748Zm1.31-3.225,1.643-4.1,1.631,4.1Zm12.418,3.225v-3.781l3.274-4.967h-1.421l-2.434,3.954-2.422-3.954h-1.507l3.274,4.967v3.781Z" transform="translate(-2775.282 -413.713)" fill="#fff"/>
  </g>
</svg>
