<svg xmlns="http://www.w3.org/2000/svg" xmlns:xlink="http://www.w3.org/1999/xlink" width="265.983" height="75.434" viewBox="0 0 265.983 75.434">
  <defs>
    <linearGradient id="linear-gradient" x1="0.5" x2="0.5" y2="1" gradientUnits="objectBoundingBox">
      <stop offset="0" stop-color="#0a854b"/>
      <stop offset="1" stop-color="#054326"/>
    </linearGradient>
  </defs>
  <g id="A_logo" transform="translate(-909.989 -520.5)">
    <path id="Path_3333" data-name="Path 3333" d="M26.841-61q-9.182,0-15.136-5.787A19.943,19.943,0,0,1,5.64-81.807q0-9.293,6.177-15.08,6.01-5.62,15.191-5.62,9.738,0,14.746,5.787L35.3-90.265q-2.615-3.617-7.957-3.617a10.717,10.717,0,0,0-8.18,3.45,12.134,12.134,0,0,0-3.172,8.625,12.413,12.413,0,0,0,3.116,8.736,10.535,10.535,0,0,0,8.069,3.339,9.575,9.575,0,0,0,8.347-4.007l6.622,6.232Q36.524-61,26.841-61Zm22.092-1.057v-39.4h9.349v16.026h.167L72.527-101.45H84.435L67.463-83.309,85.437-62.052H73.027L58.393-80.193h-.111v18.141ZM107.7-61q-7.679,0-12.3-4.4Q90.89-69.731,90.89-76.91v-24.54h9.46v23.761a8.618,8.618,0,0,0,1.725,5.62,6.756,6.756,0,0,0,5.676,2.5,6.818,6.818,0,0,0,5.732-2.5,8.815,8.815,0,0,0,1.669-5.62V-101.45h9.515v24.54a15.174,15.174,0,0,1-4.619,11.519Q115.374-61,107.7-61Zm27.434-1.057v-39.4H144.7v39.4Zm27.823,0V-93.325H151.822v-8.124H183.6v8.124H172.467v31.273Zm49.525-39.4h11.129l-15.136,22.7v16.694h-9.515V-78.746l-14.8-22.7h11.519l8.4,14.635Z" transform="translate(951.431 623.507)" fill="#31b476" stroke="rgba(0,0,0,0)" stroke-miterlimit="10" stroke-width="1"/>
    <path id="Path_3334" data-name="Path 3334" d="M95.79,40.363l9.858-.012L122.37,82.107l-9.952.022Z" transform="translate(832.035 480.737)" fill="#31b476" stroke="rgba(0,0,0,0)" stroke-miterlimit="10" stroke-width="1" fill-rule="evenodd"/>
    <path id="Path_3335" data-name="Path 3335" d="M0,82.107l13,.022L23.327,40.363l-6.6-.012Z" transform="translate(911 480.737)" fill="#31b476" stroke="rgba(0,0,0,0)" stroke-miterlimit="10" stroke-width="1"/>
    <path id="Path_3336" data-name="Path 3336" d="M41.185,122.158,45.5,110.6l31.873,29.382-9.964.051Z" transform="translate(877.027 422.857)" fill-rule="evenodd" fill="url(#linear-gradient)"/>
    <path id="Path_3337" data-name="Path 3337" d="M13.915-11.385a4.984,4.984,0,0,0-1.932-2.173,5.546,5.546,0,0,0-2.944-.771,5.976,5.976,0,0,0-3.025.771A5.443,5.443,0,0,0,3.9-11.351a6.928,6.928,0,0,0-.77,3.323A6.861,6.861,0,0,0,3.9-4.715a5.461,5.461,0,0,0,2.116,2.2,5.976,5.976,0,0,0,3.025.77,5.47,5.47,0,0,0,3.864-1.4,5.791,5.791,0,0,0,1.771-3.8H8.28v-1.7h8.625v1.61a7.96,7.96,0,0,1-1.242,3.623,7.676,7.676,0,0,1-2.783,2.6A7.8,7.8,0,0,1,9.039.138,8.09,8.09,0,0,1,4.968-.909a7.684,7.684,0,0,1-2.909-2.91A8.3,8.3,0,0,1,.989-8.027a8.364,8.364,0,0,1,1.07-4.22,7.661,7.661,0,0,1,2.909-2.921,8.09,8.09,0,0,1,4.071-1.047,8.17,8.17,0,0,1,4.519,1.265,7.238,7.238,0,0,1,2.864,3.565Zm17.549,4.6a12.317,12.317,0,0,1-.069,1.265H21.321A4.075,4.075,0,0,0,22.6-2.611a4.06,4.06,0,0,0,2.817,1.046A3.87,3.87,0,0,0,27.681-2.2a3.348,3.348,0,0,0,1.277-1.691h2.254A5.418,5.418,0,0,1,29.187-.932,6.109,6.109,0,0,1,25.415.207,6.371,6.371,0,0,1,22.206-.6a5.7,5.7,0,0,1-2.219-2.289,7.1,7.1,0,0,1-.805-3.439,7.2,7.2,0,0,1,.782-3.427,5.49,5.49,0,0,1,2.2-2.266,6.538,6.538,0,0,1,3.254-.793,6.326,6.326,0,0,1,3.174.782,5.415,5.415,0,0,1,2.127,2.151A6.347,6.347,0,0,1,31.464-6.785ZM29.3-7.222a3.861,3.861,0,0,0-.529-2.059,3.44,3.44,0,0,0-1.437-1.311,4.484,4.484,0,0,0-2.013-.449,3.879,3.879,0,0,0-2.7,1.012,4.123,4.123,0,0,0-1.276,2.806Zm11.362-5.612a5.108,5.108,0,0,1,3.726,1.391,5.356,5.356,0,0,1,1.426,4.014V0h-2.07V-7.13a4.053,4.053,0,0,0-.943-2.887,3.369,3.369,0,0,0-2.576-1,3.45,3.45,0,0,0-2.633,1.035,4.228,4.228,0,0,0-.978,3.013V0H34.523V-12.6h2.093v1.794a4.155,4.155,0,0,1,1.691-1.495A5.244,5.244,0,0,1,40.664-12.834ZM59.018-3.565H52.026L50.738,0H48.53l5.8-15.939h2.415L62.514,0H60.306Zm-.6-1.7-2.9-8.1-2.9,8.1Zm9.016-10.764V0H65.343V-16.031ZM82.823.161A6.857,6.857,0,0,1,79.982-.4a4.733,4.733,0,0,1-1.966-1.564,4.007,4.007,0,0,1-.736-2.311h2.231a2.938,2.938,0,0,0,.932,1.9,3.343,3.343,0,0,0,2.38.771,3.479,3.479,0,0,0,2.358-.748,2.426,2.426,0,0,0,.862-1.92,2.18,2.18,0,0,0-.506-1.5,3.233,3.233,0,0,0-1.265-.874,19.766,19.766,0,0,0-2.047-.644,18.027,18.027,0,0,1-2.542-.828,4.093,4.093,0,0,1-1.633-1.3,3.817,3.817,0,0,1-.678-2.38,4.125,4.125,0,0,1,.667-2.323,4.345,4.345,0,0,1,1.875-1.564,6.6,6.6,0,0,1,2.771-.552,5.805,5.805,0,0,1,3.691,1.127A4.163,4.163,0,0,1,88-12.121H85.7a2.481,2.481,0,0,0-.966-1.622,3.431,3.431,0,0,0-2.254-.7,3.265,3.265,0,0,0-2.139.679,2.317,2.317,0,0,0-.828,1.9,2.056,2.056,0,0,0,.494,1.426,3.188,3.188,0,0,0,1.219.839q.725.287,2.035.656a19.118,19.118,0,0,1,2.553.863,4.258,4.258,0,0,1,1.656,1.311,3.812,3.812,0,0,1,.69,2.4,4.22,4.22,0,0,1-.621,2.208A4.565,4.565,0,0,1,85.7-.483,6.072,6.072,0,0,1,82.823.161ZM103.04-6.785a12.318,12.318,0,0,1-.069,1.265H92.9a4.075,4.075,0,0,0,1.277,2.91,4.06,4.06,0,0,0,2.817,1.046A3.87,3.87,0,0,0,99.257-2.2a3.348,3.348,0,0,0,1.276-1.691h2.254a5.418,5.418,0,0,1-2.024,2.956A6.109,6.109,0,0,1,96.991.207,6.371,6.371,0,0,1,93.783-.6a5.7,5.7,0,0,1-2.219-2.289,7.1,7.1,0,0,1-.805-3.439,7.2,7.2,0,0,1,.782-3.427,5.49,5.49,0,0,1,2.2-2.266,6.538,6.538,0,0,1,3.255-.793,6.326,6.326,0,0,1,3.174.782,5.415,5.415,0,0,1,2.127,2.151A6.347,6.347,0,0,1,103.04-6.785Zm-2.162-.437a3.861,3.861,0,0,0-.529-2.059,3.44,3.44,0,0,0-1.437-1.311A4.484,4.484,0,0,0,96.9-11.04a3.879,3.879,0,0,0-2.7,1.012A4.123,4.123,0,0,0,92.92-7.222Zm4.439.9a7.13,7.13,0,0,1,.782-3.416,5.626,5.626,0,0,1,2.174-2.266,6.245,6.245,0,0,1,3.185-.805,6.219,6.219,0,0,1,3.83,1.127,5.319,5.319,0,0,1,1.989,3.128h-2.254a3.236,3.236,0,0,0-1.254-1.817,3.868,3.868,0,0,0-2.312-.667,3.708,3.708,0,0,0-2.9,1.231,5.041,5.041,0,0,0-1.1,3.485,5.123,5.123,0,0,0,1.1,3.519,3.692,3.692,0,0,0,2.9,1.242,3.914,3.914,0,0,0,2.3-.644,3.265,3.265,0,0,0,1.265-1.84h2.254a5.544,5.544,0,0,1-2.024,3.094,6.063,6.063,0,0,1-3.8,1.162A6.245,6.245,0,0,1,108.273-.6,5.608,5.608,0,0,1,106.1-2.875,7.25,7.25,0,0,1,105.317-6.325Zm26.22-6.279V0h-2.093V-1.863a4.075,4.075,0,0,1-1.667,1.507,5.151,5.151,0,0,1-2.357.541,5.651,5.651,0,0,1-2.645-.61,4.431,4.431,0,0,1-1.851-1.829,6.02,6.02,0,0,1-.679-2.967V-12.6h2.07V-5.5a4.018,4.018,0,0,0,.943,2.864,3.369,3.369,0,0,0,2.576,1,3.442,3.442,0,0,0,2.645-1.035,4.261,4.261,0,0,0,.966-3.013V-12.6Zm5.934,2.047a4.015,4.015,0,0,1,1.576-1.679,4.87,4.87,0,0,1,2.5-.6v2.162h-.552q-3.519,0-3.519,3.818V0h-2.093V-12.6h2.093Zm7.866-4.094a1.377,1.377,0,0,1-1.012-.414,1.377,1.377,0,0,1-.414-1.012,1.377,1.377,0,0,1,.414-1.012,1.377,1.377,0,0,1,1.012-.414,1.312,1.312,0,0,1,.977.414,1.4,1.4,0,0,1,.4,1.012,1.4,1.4,0,0,1-.4,1.012A1.312,1.312,0,0,1,145.337-14.651Zm1.012,2.047V0h-2.093V-12.6Zm6.417,1.725V-3.45a1.767,1.767,0,0,0,.391,1.3,1.927,1.927,0,0,0,1.357.379h1.541V0h-1.886a3.753,3.753,0,0,1-2.622-.805,3.455,3.455,0,0,1-.874-2.645v-7.429H149.04V-12.6h1.633v-3.174h2.093V-12.6h3.289v1.725ZM169.74-12.6,162.15,5.934h-2.162l2.484-6.072L157.389-12.6h2.323l3.956,10.212,3.91-10.212ZM186.6-8.257a3.387,3.387,0,0,1,1.6.713,4.184,4.184,0,0,1,1.15,1.426,4.008,4.008,0,0,1,.425,1.817,4.01,4.01,0,0,1-.621,2.2,4.219,4.219,0,0,1-1.805,1.541A6.446,6.446,0,0,1,184.552,0h-5.98V-16.031h5.75a6.5,6.5,0,0,1,2.783.54,3.939,3.939,0,0,1,1.725,1.461,3.825,3.825,0,0,1,.575,2.07,3.575,3.575,0,0,1-.771,2.358A4.311,4.311,0,0,1,186.6-8.257Zm-5.934-.851h3.519a3.4,3.4,0,0,0,2.277-.69,2.38,2.38,0,0,0,.8-1.909,2.38,2.38,0,0,0-.8-1.909,3.473,3.473,0,0,0-2.323-.69h-3.473Zm3.7,7.383a3.674,3.674,0,0,0,2.438-.736,2.531,2.531,0,0,0,.874-2.047,2.6,2.6,0,0,0-.92-2.1,3.709,3.709,0,0,0-2.461-.77h-3.634v5.658Zm10.695-8.832a4.015,4.015,0,0,1,1.576-1.679,4.87,4.87,0,0,1,2.5-.6v2.162h-.552q-3.519,0-3.519,3.818V0H192.97V-12.6h2.093ZM207.345.207A6.453,6.453,0,0,1,204.137-.6a5.731,5.731,0,0,1-2.254-2.289,7.016,7.016,0,0,1-.816-3.439,6.814,6.814,0,0,1,.84-3.416,5.785,5.785,0,0,1,2.288-2.277,6.639,6.639,0,0,1,3.243-.793,6.639,6.639,0,0,1,3.243.793,5.805,5.805,0,0,1,2.288,2.266,6.8,6.8,0,0,1,.84,3.427,6.716,6.716,0,0,1-.863,3.439A5.978,5.978,0,0,1,210.611-.6,6.694,6.694,0,0,1,207.345.207Zm0-1.84a4.419,4.419,0,0,0,2.116-.529,4.025,4.025,0,0,0,1.6-1.587,5.083,5.083,0,0,0,.609-2.576,5.162,5.162,0,0,0-.6-2.576,3.916,3.916,0,0,0-1.564-1.575,4.363,4.363,0,0,0-2.093-.517,4.344,4.344,0,0,0-2.1.517A3.794,3.794,0,0,0,203.78-8.9a5.33,5.33,0,0,0-.575,2.576,5.474,5.474,0,0,0,.563,2.6,3.745,3.745,0,0,0,1.507,1.576A4.232,4.232,0,0,0,207.345-1.633ZM223.905,0,218.96-5.566V0h-2.093V-17.02h2.093V-7.015l4.853-5.589h2.921L220.8-6.325,226.757,0Zm16.606-6.785a12.316,12.316,0,0,1-.069,1.265H230.368a4.075,4.075,0,0,0,1.276,2.91,4.06,4.06,0,0,0,2.818,1.046,3.87,3.87,0,0,0,2.266-.632A3.348,3.348,0,0,0,238-3.887h2.254a5.418,5.418,0,0,1-2.024,2.956A6.109,6.109,0,0,1,234.462.207,6.371,6.371,0,0,1,231.254-.6a5.7,5.7,0,0,1-2.219-2.289,7.1,7.1,0,0,1-.805-3.439,7.2,7.2,0,0,1,.782-3.427,5.49,5.49,0,0,1,2.2-2.266,6.538,6.538,0,0,1,3.255-.793,6.326,6.326,0,0,1,3.174.782,5.415,5.415,0,0,1,2.128,2.151A6.347,6.347,0,0,1,240.511-6.785Zm-2.162-.437a3.861,3.861,0,0,0-.529-2.059,3.44,3.44,0,0,0-1.437-1.311,4.484,4.484,0,0,0-2.012-.449,3.879,3.879,0,0,0-2.7,1.012,4.123,4.123,0,0,0-1.277,2.806Zm7.314-3.335a4.015,4.015,0,0,1,1.576-1.679,4.87,4.87,0,0,1,2.5-.6v2.162h-.552q-3.519,0-3.519,3.818V0H243.57V-12.6h2.093Z" transform="translate(909 590)" fill="#fff"/>
  </g>
</svg>
