<svg xmlns="http://www.w3.org/2000/svg" xmlns:xlink="http://www.w3.org/1999/xlink" width="25" height="25" viewBox="0 0 25 25">
  <defs>
    <clipPath id="clip-path">
      <rect id="Rectangle_3938" data-name="Rectangle 3938" width="25" height="25" transform="translate(43 480)" fill="#6a7581"/>
    </clipPath>
  </defs>
  <g id="Admin-cion" transform="translate(-43 -480)" clip-path="url(#clip-path)">
    <path id="manage-icon" d="M0,18.88c0-7.09,6.693-3.165,7.2-7.509.056-.473-1.06-1.723-1.316-2.587A3.184,3.184,0,0,1,5.741,5.6a4.6,4.6,0,0,0,.138-1.838c0-5.02,8.795-5.02,8.795,0,0,.635-.147,1.434.2,1.929a3.2,3.2,0,0,1-.208,3.091c-.31.905-1.5,2.071-1.4,2.586a2.851,2.851,0,0,0,.506,1.208l-.086.084a1.531,1.531,0,0,0-.33.489l-.022.056a1.474,1.474,0,0,0-.1.525,1.51,1.51,0,0,0,.122.588l.048.1a1.816,1.816,0,0,0-.226.07,1.551,1.551,0,0,0-.83.83l-.036.106a1.5,1.5,0,0,0-.075.468v.956a1.476,1.476,0,0,0,.117.577l.043.093a1.558,1.558,0,0,0,.271.382l.025.025a1.528,1.528,0,0,0,.473.321l.12.043a1.244,1.244,0,0,0-.1.194,1.486,1.486,0,0,0-.111.384Zm20.648-5.433a.387.387,0,0,0-.278-.117.38.38,0,0,0-.278.117l-.423.43a2.9,2.9,0,0,0-.359-.2,3.688,3.688,0,0,0-.384-.149v-.649a.389.389,0,0,0-.391-.393H17.72a.38.38,0,0,0-.274.115.375.375,0,0,0-.117.278v.593a2.955,2.955,0,0,0-.394.122,2.818,2.818,0,0,0-.359.169l-.475-.463a.359.359,0,0,0-.271-.117.384.384,0,0,0-.278.117l-.57.572a.385.385,0,0,0,0,.556l.421.423a2.749,2.749,0,0,0-.194.359,3.865,3.865,0,0,0-.149.384H14.41a.385.385,0,0,0-.391.391v.816a.393.393,0,0,0,.391.389h.6a2.8,2.8,0,0,0,.12.394,3.694,3.694,0,0,0,.169.373l-.463.461a.359.359,0,0,0-.117.271.38.38,0,0,0,.117.278l.572.572a.394.394,0,0,0,.278.109.389.389,0,0,0,.276-.109l.423-.43a2.9,2.9,0,0,0,.359.2,3.821,3.821,0,0,0,.382.149v.649a.393.393,0,0,0,.393.393h.814a.38.38,0,0,0,.274-.115.375.375,0,0,0,.117-.278v-.593a2.954,2.954,0,0,0,.394-.122,3.881,3.881,0,0,0,.373-.169l.461.463a.381.381,0,0,0,.549,0l.577-.572a.393.393,0,0,0,.111-.278.385.385,0,0,0-.111-.278l-.429-.423a2.749,2.749,0,0,0,.194-.359,3.865,3.865,0,0,0,.151-.384h.649A.385.385,0,0,0,22.029,17v-.809a.382.382,0,0,0-.113-.273.371.371,0,0,0-.278-.117h-.6a3.5,3.5,0,0,0-.12-.391,3.036,3.036,0,0,0-.169-.369l.461-.468a.359.359,0,0,0,.118-.273.378.378,0,0,0-.118-.276ZM18.025,14.9a1.584,1.584,0,0,1,1.472.974,1.614,1.614,0,0,1,0,1.244,1.58,1.58,0,0,1-.848.85,1.632,1.632,0,0,1-1.255,0,1.58,1.58,0,0,1-.848-.85,1.614,1.614,0,0,1,0-1.244,1.584,1.584,0,0,1,1.47-.974Z" transform="translate(44.486 482.25)" fill="#6a7581" fill-rule="evenodd"/>
  </g>
</svg>
