<svg xmlns="http://www.w3.org/2000/svg" xmlns:xlink="http://www.w3.org/1999/xlink" width="25" height="25" viewBox="0 0 25 25">
  <defs>
    <clipPath id="clip-path">
      <rect id="Rectangle_3935" data-name="Rectangle 3935" width="25" height="25" transform="translate(43 304)" fill="#6a7581"/>
    </clipPath>
  </defs>
  <g id="Audit-cion" transform="translate(-43 -304)" clip-path="url(#clip-path)">
    <path id="audit-icon" d="M10.693,4.891l1.06,1.833A2.121,2.121,0,1,1,10.389,2.8l.306,2.094ZM14.957,11.9a4.285,4.285,0,0,1,3.586,6.629l1.856,2.02-1.279,1.17-1.788-1.967A4.284,4.284,0,1,1,14.957,11.9Zm-1.613,4.685a.493.493,0,0,1-.06-.076.639.639,0,0,1-.044-.085.546.546,0,0,1,.785-.679.484.484,0,0,1,.085.064h0c.148.143.2.177.353.32l.143.129L15.77,15a.546.546,0,0,1,.788.755l-1.442,1.56-.074.076a.548.548,0,0,1-.762.034h0l-.117-.11-.277-.242c-.216-.187-.341-.29-.543-.493Zm1.617-3.791A3.409,3.409,0,1,1,11.552,16.2a3.409,3.409,0,0,1,3.409-3.407ZM6.277,4.485h.986a.1.1,0,0,1,.1.1V6.524a.1.1,0,0,1-.1.1H6.277a.1.1,0,0,1-.1-.1V4.58A.1.1,0,0,1,6.277,4.485Zm9.274-1.522h1.608A1.147,1.147,0,0,1,18.3,4.105v5.931c-.034.353-.912.362-.986,0V4.105a.161.161,0,0,0-.046-.115.157.157,0,0,0-.117-.048h-1.6v6.093c-.085.323-.816.373-.981,0V1.142a.157.157,0,0,0-.163-.161H1.136a.161.161,0,0,0-.115.046.156.156,0,0,0-.048.115v15.47a.161.161,0,0,0,.163.163H8.931c.495.049.509.9,0,.979H3.711v1.82a.157.157,0,0,0,.048.117.161.161,0,0,0,.115.046H8.931c.353.041.474.854,0,.981H3.888a1.12,1.12,0,0,1-.806-.336,1.135,1.135,0,0,1-.338-.808v-1.82h-1.6A1.147,1.147,0,0,1,0,16.611V1.142A1.126,1.126,0,0,1,.336.336,1.136,1.136,0,0,1,1.142,0H14.416a1.134,1.134,0,0,1,1.135,1.142ZM2.651,9.969a.433.433,0,0,1,0-.864h7.793a.433.433,0,0,1,0,.864Zm0,2.255a.433.433,0,1,1,0-.866h6.51a.433.433,0,0,1,0,.866ZM2.7,14.717a.433.433,0,1,1,0-.866H7.569a.433.433,0,0,1,0,.866ZM2.746,3.292h.988a.1.1,0,0,1,.1.1V6.519a.1.1,0,0,1-.1.1H2.757a.1.1,0,0,1-.1-.1V3.388a.1.1,0,0,1,.1-.1Zm1.767-.67H5.5a.1.1,0,0,1,.1.1v3.8a.1.1,0,0,1-.1.1H4.517a.1.1,0,0,1-.1-.1v-3.8a.1.1,0,0,1,.1-.1Zm6.62,2.359h1.974a1.967,1.967,0,0,1-.884,1.635Zm-.221-.387-.118-2.257.231-.011a2.262,2.262,0,0,1,2.283,2.091l.011.141-2.4.177V4.591Zm.177-1.981.1,1.82L13,4.3a1.97,1.97,0,0,0-1.914-1.686Z" transform="translate(45.301 305.643)" fill="#6a7581" fill-rule="evenodd"/>
  </g>
</svg>
