<svg xmlns="http://www.w3.org/2000/svg" xmlns:xlink="http://www.w3.org/1999/xlink" width="25" height="25" viewBox="0 0 25 25">
  <defs>
    <clipPath id="clip-path">
      <rect id="Rectangle_3936" data-name="Rectangle 3936" width="25" height="25" transform="translate(43 362)" fill="#6a7581"/>
    </clipPath>
  </defs>
  <g id="Onboarding-cion" transform="translate(-43 -362)" clip-path="url(#clip-path)">
    <path id="contract-icon" d="M4.263,5.493l.223,2.759a.921.921,0,0,0,.159.512.33.33,0,0,0,.268.087h.856a.317.317,0,0,0,.275-.106.734.734,0,0,0,.108-.416V5.287a.152.152,0,0,1,0-.05h0a.23.23,0,0,0-.1-.163A.647.647,0,0,0,5.7,5.007c-.374,0-.758.011-1.129,0a.354.354,0,0,0-.266.092.494.494,0,0,0-.046.379v.014Zm12.96,7.9,1.736,1.37a.532.532,0,0,1,.089.746l-.758.966-2.571-2.031.76-.962a.532.532,0,0,1,.746-.089Zm-6.887,7.219a.579.579,0,1,1,0,1.157H1.347A1.348,1.348,0,0,1,0,20.427V1.347A1.348,1.348,0,0,1,1.347,0H17.429a1.348,1.348,0,0,1,1.354,1.347v9.746c0,.631-.271.728-.551.748s-.606-.076-.606-.748V1.347a.177.177,0,0,0-.057-.133.19.19,0,0,0-.133-.057H1.347a.2.2,0,0,0-.135.055.2.2,0,0,0-.055.135V20.425a.177.177,0,0,0,.057.133.19.19,0,0,0,.135.057ZM4.178,17.345a.587.587,0,0,1,0-1.171h8.264l-.748.964a1.517,1.517,0,0,0-.147.207ZM4.4,14.128a.579.579,0,0,1,0-1.157h9.474a.579.579,0,0,1,.578.579.214.214,0,0,1,0,.034,1.474,1.474,0,0,0-.108.177,1.442,1.442,0,0,0-.221.237l-.082.1a.583.583,0,0,1-.167.025Zm11.032,6.025c-.6.266-1.083.4-1.682.663-1.276.439-1.24.735-1.134-.532l.248-2.158h0l2.47-3.189,2.571,2.027-2.47,3.189Zm-2.126-1.678L15,19.807l-1.182.532c-.925.409-.9.606-.746-.354l.239-1.506ZM12.825,4.912a.377.377,0,0,1,.046-.046.792.792,0,0,1,.549-.177h1.04a1.028,1.028,0,0,1,.636.165.617.617,0,0,1,.213.61l-.284,2.929A1.015,1.015,0,0,1,14.813,9a.652.652,0,0,1-.551.214H13.35a.6.6,0,0,1-.415-.126.719.719,0,0,1-.177-.22H12.4a.728.728,0,0,1-.011.4.78.78,0,0,1-.257.365.9.9,0,0,1-.4.177.787.787,0,0,1-.4-.035,1.079,1.079,0,0,1-.475.292.886.886,0,0,1-.5-.012,1.063,1.063,0,0,1-.544.326,1.024,1.024,0,0,1-.645-.085.989.989,0,0,1-.209.119.886.886,0,0,1-.365.067.987.987,0,0,1-.668-.245,1.949,1.949,0,0,1-.369-.507L6.939,8.651H6.517a.863.863,0,0,1-.154.338.7.7,0,0,1-.6.264H4.915a.709.709,0,0,1-.569-.216A1.27,1.27,0,0,1,4.084,8.3V8.278L3.861,5.527A.845.845,0,0,1,4,4.837a.735.735,0,0,1,.558-.23H5.7a1.015,1.015,0,0,1,.569.133.594.594,0,0,1,.245.307h.872a2.63,2.63,0,0,1,.691-.354,1.884,1.884,0,0,1,.785-.085l.3-.354.018-.018a1.269,1.269,0,0,1,.3-.216,1.584,1.584,0,0,1,.367-.14,2.3,2.3,0,0,1,.622-.069,2.823,2.823,0,0,1,.661.09h0a3.3,3.3,0,0,1,1.006.542l.227.156.452.3ZM8.883,10l-.416-.787a.2.2,0,1,1,.356-.191l.47.886a.664.664,0,0,0,.434.074.649.649,0,0,0,.321-.191L9.379,8.744a.2.2,0,1,1,.342-.216l.709,1.125a.494.494,0,0,0,.317.023.659.659,0,0,0,.282-.177l-.638-1.2a.2.2,0,1,1,.354-.191l.673,1.267a.383.383,0,0,0,.243.035.447.447,0,0,0,.211-.094.351.351,0,0,0,.1-.432.177.177,0,0,1-.016-.06.211.211,0,0,1-.069-.083l-1.5-2.711c-.144-.243-.269-.252-.388-.177a2.126,2.126,0,0,0-.31.252c-.062.058-.126.115-.188.167l-.268.221a1.159,1.159,0,0,1-.617.252.92.92,0,0,1-.4-.053.758.758,0,0,1-.324-.23.767.767,0,0,1-.167-.427.2.2,0,0,1,.06-.161L8.521,5a1.418,1.418,0,0,0-.335.06,2.42,2.42,0,0,0-.625.328.2.2,0,0,1-.126.044H6.556v2.81h.5a.2.2,0,0,1,.177.11L7.9,9.529a1.664,1.664,0,0,0,.285.408.6.6,0,0,0,.409.142.475.475,0,0,0,.2-.037A.565.565,0,0,0,8.879,10Zm3.741-1.538.028-3.189-.5-.335-.234-.154a2.952,2.952,0,0,0-.886-.484h0a2.444,2.444,0,0,0-.563-.078,1.926,1.926,0,0,0-.516.055,1.272,1.272,0,0,0-.28.108.959.959,0,0,0-.211.147l-.333.4a.186.186,0,0,1-.051.06l-.923,1.09a.328.328,0,0,0,.216.239.517.517,0,0,0,.22.027.758.758,0,0,0,.4-.165l.26-.216c.06-.048.117-.1.177-.152a2.456,2.456,0,0,1,.376-.3c.321-.193.636-.193.946.321l1.46,2.633Zm-7.2-.843a.257.257,0,1,1-.183.075.259.259,0,0,1,.183-.075Zm8.328,0a.254.254,0,1,1-.005,0Z" transform="translate(45.919 363.613)" fill="#6a7581" fill-rule="evenodd"/>
  </g>
</svg>
