<svg xmlns="http://www.w3.org/2000/svg" xmlns:xlink="http://www.w3.org/1999/xlink" width="25" height="25" viewBox="0 0 25 25">
  <defs>
    <clipPath id="clip-path">
      <rect id="Rectangle_3934" data-name="Rectangle 3934" width="25" height="25" transform="translate(43 243)" fill="#6a7581"/>
    </clipPath>
  </defs>
  <g id="Policy_Manager-cion" data-name="Policy Manager-cion" transform="translate(-43 -243)" clip-path="url(#clip-path)">
    <path id="policy-icon" d="M20.649,12.387c.256,5.133-1.641,8.168-5,9.432-3.246-1.186-5.171-4.086-5.021-9.51a7.179,7.179,0,0,0,5-1.539,8.546,8.546,0,0,0,5.021,1.618ZM11.162,2.152l3.676,3.443H11.162ZM3.47,10.08a.419.419,0,0,1,.3-.137H11.2a.414.414,0,0,1,.311.142.513.513,0,0,1,0,.666h0a.508.508,0,0,1-.089.075c-.142.027-.284.048-.426.067H3.78a.423.423,0,0,1-.313-.14.51.51,0,0,1,0-.669Zm0,2.971a.419.419,0,0,1,.311-.144H8.953c.016.325.037.643.066.954H3.78a.419.419,0,0,1-.313-.14.51.51,0,0,1,0-.669Zm0,2.969a.423.423,0,0,1,.311-.142H9.311q.1.492.229.954H3.78a.414.414,0,0,1-.313-.142.5.5,0,0,1-.124-.336.51.51,0,0,1,.126-.334Zm0-8.91a.419.419,0,0,1,.311-.144H8.042a.412.412,0,0,1,.309.14.5.5,0,0,1,.124.337.51.51,0,0,1-.124.334.423.423,0,0,1-.309.142H3.78a.423.423,0,0,1-.313-.14.508.508,0,0,1-.124-.337A.5.5,0,0,1,3.47,7.1Zm0-2.763A.419.419,0,0,1,3.78,4.2H6.124a.415.415,0,0,1,.307.138h0a.51.51,0,0,1,0,.669.419.419,0,0,1-.309.142H3.78a.419.419,0,0,1-.313-.14.51.51,0,0,1,0-.669ZM16.883,6.089a.611.611,0,0,0-.446-.584L11.021.225A.6.6,0,0,0,10.549,0H1.1A1.1,1.1,0,0,0,0,1.1V19.933a1.088,1.088,0,0,0,.323.78,1.1,1.1,0,0,0,.778.321H11.7a9.2,9.2,0,0,1-.9-1.229H1.229V1.223h8.7V6.215a.618.618,0,0,0,.618.616h5.107v2.1q.623.394,1.229.719Zm-3.967,9.7.961-.012a2.883,2.883,0,0,1,.966.71c.158-.252.321-.494.49-.728q.281-.391.575-.746c.213-.259.435-.506.662-.742a3.294,3.294,0,0,1,.81-.721.048.048,0,0,1,.023,0h1.051a.062.062,0,0,1,.062.062.059.059,0,0,1-.02.044l-.208.226q-.487.533-.927,1.1c-.3.375-.579.756-.845,1.142s-.517.772-.755,1.168-.465.8-.677,1.215l-.133.256a.064.064,0,0,1-.083.027.078.078,0,0,1-.028-.03l-.121-.259a6.447,6.447,0,0,0-.366-.685,5.705,5.705,0,0,0-.437-.62,5.4,5.4,0,0,0-.515-.552,5.135,5.135,0,0,0-.6-.479.062.062,0,0,1-.023-.071l.076-.256a.064.064,0,0,1,.062-.044Z" transform="translate(45.612 244.591)" fill="#6a7581" fill-rule="evenodd"/>
  </g>
</svg>
