<svg id="save" xmlns="http://www.w3.org/2000/svg" xmlns:xlink="http://www.w3.org/1999/xlink" width="12.819" height="12.819" viewBox="0 0 12.819 12.819">
  <defs>
    <clipPath id="clip-path">
      <rect id="Rectangle_4023" data-name="Rectangle 4023" width="12.819" height="12.819" fill="#31b476"/>
    </clipPath>
  </defs>
  <g id="Group_10653" data-name="Group 10653" clip-path="url(#clip-path)">
    <path id="Path_3242" data-name="Path 3242" d="M2,0V.468q0,4.854,0,9.709c0,.561.084.646.638.646h7.7c.485,0,.486,0,.487-.469,0-2.639-.005-5.278.007-7.917,0-.346-.106-.455-.45-.447C9.508,2.01,8.636,2,7.765,2c-.179,0-.351.006-.351.245,0,1.108,0,2.216,0,3.36H9.458L6.367,8.688,3.29,5.625h2.1c.01-.177.025-.314.026-.45,0-1.29,0-2.579,0-3.869C5.421.339,5.768,0,6.745,0h4.765c.947,0,1.309.356,1.309,1.29q0,5.123,0,10.246c0,.915-.366,1.281-1.282,1.282q-5.123,0-10.246,0C.369,12.818,0,12.455,0,11.544Q0,6.4,0,1.262C0,.371.373,0,1.267,0H2" transform="translate(0 0)" fill="#31b476"/>
  </g>
</svg>
