<svg xmlns="http://www.w3.org/2000/svg" xmlns:xlink="http://www.w3.org/1999/xlink" width="25" height="25" viewBox="0 0 25 25">
  <defs>
    <clipPath id="clip-path">
      <rect id="Rectangle_3941" data-name="Rectangle 3941" width="25" height="25" transform="translate(43 421)" fill="#6a7581"/>
    </clipPath>
    <clipPath id="clip-path-2">
      <rect id="Rectangle_3940" data-name="Rectangle 3940" width="22.687" height="22.978" fill="#6a7581"/>
    </clipPath>
  </defs>
  <g id="Threat_Management_cion" data-name="Threat Management_cion" transform="translate(-43 -421)" clip-path="url(#clip-path)">
    <g id="Group_10597" data-name="Group 10597" transform="translate(44 422)">
      <g id="Group_10596" data-name="Group 10596" clip-path="url(#clip-path-2)">
        <path id="Path_3194" data-name="Path 3194" d="M15.281,22.978a.936.936,0,0,1-.583-.835c-.024-.183-.07-.364-.112-.573-.226.149-.431.286-.637.42a.727.727,0,0,1-1.035-.1q-.714-.707-1.42-1.421a.725.725,0,0,1-.1-1.034c.134-.207.271-.411.421-.639-.276-.055-.524-.1-.771-.155a.729.729,0,0,1-.637-.778c0-.692,0-1.383,0-2.11h-.268q-3.6,0-7.2,0A2.9,2.9,0,0,1,.475,11.269q1.56-2.535,3.108-5.078c.976-1.6,1.946-3.2,2.93-4.79A2.771,2.771,0,0,1,9.1,0a2.773,2.773,0,0,1,2.353,1.372q1.49,2.353,2.973,4.711,1.4,2.222,2.8,4.447a.309.309,0,0,0,.305.167.733.733,0,0,1,.829.679c.047.233.1.465.151.726.225-.149.43-.286.636-.422a.727.727,0,0,1,1.035.1q.722.715,1.436,1.437a.721.721,0,0,1,.1,1c-.137.213-.28.424-.427.646.518.171,1.154.059,1.4.705V18.1c-.249.646-.884.535-1.4.705.141.213.278.418.412.623a.733.733,0,0,1-.108,1.05q-.69.7-1.385,1.386a.745.745,0,0,1-1.086.109l-.611-.409c-.046.23-.1.425-.122.624a.911.911,0,0,1-.574.789ZM11.425,14.3c-.38-.523-.158-.9.236-1.269.418-.389.811-.806,1.216-1.209a.747.747,0,0,1,1.1-.115c.2.13.393.261.605.4.057-.29.1-.541.158-.79a.73.73,0,0,1,.724-.621c.04,0,.079-.008.138-.015-.057-.095-.1-.165-.142-.234l-1.9-3.015Q11.917,4.819,10.27,2.2a1.5,1.5,0,0,0-.915-.718,1.441,1.441,0,0,0-1.647.722Q5.76,5.393,3.816,8.579c-.7,1.148-1.4,2.3-2.107,3.444a1.5,1.5,0,0,0-.218,1.185,1.435,1.435,0,0,0,1.465,1.1q4.131,0,8.262,0c.058,0,.116-.005.207-.01m9.81,2.029c-.6-.08-1.1-.173-1.388-.869A1.444,1.444,0,0,1,20.2,13.9l-.715-.716a1.42,1.42,0,0,1-1.571.345c-.7-.285-.764-.806-.866-1.378h-1c-.1.584-.172,1.1-.873,1.382a1.436,1.436,0,0,1-1.563-.347l-.72.71a1.436,1.436,0,0,1,.351,1.573c-.284.705-.817.769-1.381.874v.991c.579.1,1.1.171,1.381.872a1.439,1.439,0,0,1-.353,1.576l.721.712a1.427,1.427,0,0,1,1.565-.354c.707.284.775.813.877,1.384h1c.082-.583.169-1.09.859-1.38a1.431,1.431,0,0,1,1.563.333l.721-.721a1.393,1.393,0,0,1-.337-1.562c.283-.7.813-.754,1.379-.86Z" transform="translate(0 0)" fill="#6a7581"/>
        <rect id="Rectangle_3939" data-name="Rectangle 3939" width="1.418" height="4.668" transform="translate(8.253 4.204)" fill="#6a7581"/>
        <path id="Path_3195" data-name="Path 3195" d="M137.552,173.108a.722.722,0,1,1,.726-.712.728.728,0,0,1-.726.712" transform="translate(-128.597 -161.329)" fill="#6a7581"/>
        <path id="Path_3196" data-name="Path 3196" d="M232.827,240.181a2.528,2.528,0,1,1,2.534,2.539,2.532,2.532,0,0,1-2.534-2.539m2.536,1.093a1.082,1.082,0,1,0-1.09-1.087,1.088,1.088,0,0,0,1.09,1.087" transform="translate(-218.809 -223.355)" fill="#6a7581"/>
      </g>
    </g>
  </g>
</svg>
