<svg xmlns="http://www.w3.org/2000/svg" xmlns:xlink="http://www.w3.org/1999/xlink" width="47.461" height="47.461" viewBox="0 0 47.461 47.461">
  <defs>
    <clipPath id="clip-path">
      <rect id="Rectangle_4016" data-name="Rectangle 4016" width="27.235" height="28.25" transform="translate(-3 -2)" fill="none" stroke="#000" stroke-width="0.5"/>
    </clipPath>
  </defs>
  <g id="Group_10707" data-name="Group 10707" transform="translate(-5420.319 -2501)">
    <circle id="Ellipse_132" data-name="Ellipse 132" cx="23.73" cy="23.73" r="23.73" transform="translate(5420.319 2501)" fill="#fff"/>
    <g id="Group_10633" data-name="Group 10633" transform="translate(5433.433 2512.605)">
      <g id="Group_10631" data-name="Group 10631" clip-path="url(#clip-path)">
        <path id="Path_3240" data-name="Path 3240" d="M7.456,14.085A7.395,7.395,0,1,1,17.661,5.173a7.442,7.442,0,0,1-3.873,8.911c.374.149.746.277,1.1.442a10.523,10.523,0,0,1,6.128,7.531,14.379,14.379,0,0,1,.211,1.457.628.628,0,0,1-.512.73.613.613,0,0,1-.692-.556,20.114,20.114,0,0,0-.513-2.467,9.126,9.126,0,0,0-4.691-5.385A9.063,9.063,0,0,0,9.7,14.886a9.194,9.194,0,0,0-6.252,3.271,9.119,9.119,0,0,0-2.209,5.319,1.785,1.785,0,0,1-.049.284.6.6,0,0,1-.684.482.613.613,0,0,1-.5-.648,10.063,10.063,0,0,1,.753-3.325,10.557,10.557,0,0,1,6.49-6.1c.06-.021.118-.047.212-.085m3.142-.528A6.169,6.169,0,1,0,4.448,7.331,6.169,6.169,0,0,0,10.6,13.557" transform="translate(0 0)" stroke="#000" stroke-width="1"/>
      </g>
    </g>
  </g>
</svg>
